{"title":"Cargo 2017 720p BRRip x264 ESub [MW]","magnet":"magnet:?xt=urn:btih:df2f7439e49ac38a52ba109b3afb9a687c1793bc&dn=Cargo+2017+720p+BRRip+x264+ESub+%5BMW%5D&tr=udp%3A%2F%2Ftracker.leechers-paradise.org%3A6969&tr=udp%3A%2F%2Fzer0day.ch%3A1337&tr=udp%3A%2F%2Fopen.demonii.com%3A1337&tr=udp%3A%2F%2Ftracker.coppersurfer.tk%3A6969&tr=udp%3A%2F%2Fexodus.desync.com%3A6969","uploader":"MFreaky","categoryP":"video","categoryS":"hd___movies","size":"994275584","seeders":"0","leechers":"0","description":" <a href=\"https://pichub.site/image/DHkjN\" rel=\"nofollow\" target=\"_NEW\">https://pichub.site/image/DHkjN</a> <a href=\"\nhttps://pichub.site/image/DHywD\" rel=\"nofollow\" target=\"_NEW\">\nhttps://pichub.site/image/DHywD</a> <a href=\"\nhttps://pichub.site/image/DHhTg\" rel=\"nofollow\" target=\"_NEW\">\nhttps://pichub.site/image/DHhTg</a> <a href=\"\nhttps://pichub.site/image/DHCxZ\" rel=\"nofollow\" target=\"_NEW\">\nhttps://pichub.site/image/DHCxZ</a> <a href=\"\nhttps://pichub.site/image/DHtEI\" rel=\"nofollow\" target=\"_NEW\">\nhttps://pichub.site/image/DHtEI</a>\r\n\r\nIMDB <a href=\"\nhttps://www.imdb.com/title/tt3860916/\" rel=\"nofollow\" target=\"_NEW\">\nhttps://www.imdb.com/title/tt3860916/</a>\r\n\r\nVideo\r\nID                                       : 1\r\nFormat                                   : AVC\r\nFormat/Info                              : Advanced Video Codec\r\nFormat profile                           : High@L4.1\r\nFormat settings                          : CABAC / 4 Ref Frames\r\nFormat settings, CABAC                   : Yes\r\nFormat settings, RefFrames               : 4 frames\r\nCodec ID                                 : V_MPEG4/ISO/AVC\r\nDuration                                 : 1 h 43 min\r\nBit rate                                 : 1 200 kb/s\r\nWidth                                    : 1 280 pixels\r\nHeight                                   : 572 pixels\r\nDisplay aspect ratio                     : 2.25:1\r\nFrame rate mode                          : Constant\r\nFrame rate                               : 23.976 (24000/1001) FPS\r\nColor space                              : YUV\r\nChroma subsampling                       : 4:2:0\r\nBit depth                                : 8 bits\r\nScan type                                : Progressive\r\nBits/(Pixel*Frame)                       : 0.068\r\nStream size                              : 853 MiB (90%)\r\nWriting library                          : x264 core 155 r2901 7d0ff22\r\nDefault                                  : Yes\r\nForced                                   : No\r\n\r\nAudio\r\nID                                       : 2\r\nFormat                                   : AAC\r\nFormat/Info                              : Advanced Audio Codec\r\nFormat profile                           : HE-AAC / LC\r\nFormat settings                          : Explicit\r\nCodec ID                                 : A_AAC-2\r\nDuration                                 : 1 h 43 min\r\nBit rate                                 : 127 kb/s\r\nChannel(s)                               : 2 channels\r\nChannel positions                        : Front: L R\r\nSampling rate                            : 48.0 kHz / 24.0 kHz\r\nFrame rate                               : 23.438 FPS (1024 SPF)\r\nCompression mode                         : Lossy\r\nStream size                              : 93.9 MiB (10%)\r\nLanguage                                 : English\r\nDefault                                  : Yes\r\nForced                                   : No","last_updated":"2018-09-10T12:00:09.056Z","parsed":{"xt":"urn:btih:df2f7439e49ac38a52ba109b3afb9a687c1793bc","dn":"Cargo 2017 720p BRRip x264 ESub [MW]","tr":["udp://exodus.desync.com:6969","udp://open.demonii.com:1337","udp://tracker.coppersurfer.tk:6969","udp://tracker.leechers-paradise.org:6969","udp://zer0day.ch:1337"],"infoHash":"df2f7439e49ac38a52ba109b3afb9a687c1793bc","infoHashBuffer":{"type":"Buffer","data":[223,47,116,57,228,154,195,138,82,186,16,155,58,251,154,104,124,23,147,188]},"name":"Cargo 2017 720p BRRip x264 ESub [MW]","announce":["udp://exodus.desync.com:6969","udp://open.demonii.com:1337","udp://tracker.coppersurfer.tk:6969","udp://tracker.leechers-paradise.org:6969","udp://zer0day.ch:1337"],"urlList":[]}}